<?xml version="1.0" encoding="utf-8"?>
<svg version="1.1" xmlns:xlink="http://www.w3.org/1999/xlink" width="30px" height="30px" xmlns="http://www.w3.org/2000/svg">
  <g transform="matrix(1 0 0 1 -172 -19 )">
    <path d="M 29.893673356681 14.8386840901384  L 29.8936733230065 13.7111486464844  C 29.8936733230065 12.9829487056127  29.6695027613147 12.3663277937729  29.221161637931 11.8612859109648  C 28.7728205145474 11.3562440281567  28.111243983477 11.1037230867527  27.2364320447198 11.1037230867527  L 2.40270804148707 11.1037230867527  C 1.65911788344109 11.1037230867527  1.08502255073635 11.3033908140312  0.680422043372843 11.7027262685883  C 0.275821536009337 12.1020617231453  0.0844564251077572 12.6423391021309  0.106326710668102 13.3235584055452  L 0.106326710668102 14.627271185411  L 0.106326710668102 17.3051677374978  L 0.106326710668102 20.5820674714202  L 0.106326710668102 23.8589672053426  L 0.106326710668102 26.4311573050657  L 0.106326710668102 27.6291636687369  C 0.106326710668102 28.3808539403936  0.314094546964797 28.950494214776  0.729630219558188 29.3380844918842  C 1.14516589215158 29.7256747689924  1.67005305989583 29.9194699196029  2.30429172279095 30  L 27.2364320783944 30  C 28.0018925220007 29.9194699437155  28.6361311848958 29.6728215789796  29.1391480670797 29.1795248495077  C 29.6421649492637 28.6862281200358  29.8936733791307 28.075479784864  29.893673356681 27.3472798439924  L 29.893673356681 25.9026251155853  L 29.893673356681 23.3656704758707  L 29.893673356681 20.2649481504981  L 29.893673356681 17.2346967813117  L 29.893673356681 14.8386840901384  Z M 15.6889143992457 15.7900420167356  L 15.6889143992457 16.1423968338353  C 15.6889143992457 16.6826742007646  15.4975492883441 17.1759709302365  15.1148190665409 17.6222870222509  C 14.7320888447378 18.0686031142654  14.2673449959591 18.2917611602726  13.7205875202047 18  L 3.55089870689655 18  C 3.00414125359196 18.2917611602726  2.53939740481322 18.0744756909335  2.15666716056035 17.6399047522552  C 1.77393691630747 17.2053338135769  1.58257180540589 16.7296548261657  1.5825718278556 16.2128677900214  L 1.5825718278556 15.7548065205581  C 1.5825718278556 15.2145291536288  1.77393693875719 14.7388501662175  2.15666716056035 14.3277695583242  C 2.53939738236351 13.916688950431  3.00414123114224 13.7111486464844  3.55089870689655 14  L 13.7205875202047 14  C 14.2673449735093 13.7111486464844  14.7320888222881 13.9284341158235  15.1148190665409 14.3630050545018  C 15.4975493107938 14.7975759931801  15.6889144216954 15.2732549805914  15.6889143992457 15.7900420167356  Z M 24.8908425377155 26.4135395388925  C 24.2675390176006 26.7071685410858  23.5950273325251 26.8539830421825  22.8733074824892 26.8539830421825  C 22.1515876324533 26.8539830421825  21.4790759473779 26.7071685410858  20.8557724272629 26.4135395388925  C 20.232468907148 26.1199105366991  19.6857114426185 25.7264476708665  19.2155000336746 25.2331509413946  C 18.7452886247306 24.7398542119227  18.3734935457076 24.1584687721477  18.1001147966056 23.4889946220697  C 17.8267360475036 22.8195204719917  17.6900466841774 22.0971931077881  17.6900467066272 21.3220125294591  C 17.6900467290769 20.54683195113  17.826736092403 19.8186320102584  18.1001147966056 19.1374127068441  C 18.3734935008082 18.4561934034299  18.7452885798312 17.8689353869869  19.2155000336746 17.375638657515  C 19.685711487518 16.8823419280431  20.2324689520474 16.4888790622105  20.8557724272629 16.1952500600171  C 21.4790759024784 15.9016210578237  22.1515875875539 15.7548065567271  22.8733074824892 15.7548065567271  C 23.5950273774246 15.7548065567271  24.2675390625 15.9016210578237  24.8908425377155 16.1952500600171  C 25.514146012931 16.4888790622105  26.0609034774605 16.8823419280431  26.5311149313039 17.375638657515  C 27.0013263851473 17.8689353869869  27.3731214641703 18.4561934034299  27.6465001683728 19.1374127068441  C 27.9198788725754 19.8186320102584  28.0565682359016 20.54683195113  28.0565682583513 21.3220125294591  C 28.056568280801 22.0971931077881  27.9198789174749 22.8195204719917  27.6465001683728 23.4889946220697  C 27.3731214192708 24.1584687721478  27.0013263402479 24.7398542119227  26.5311149313039 25.2331509413946  C 26.0609035223599 25.7264476708665  25.5141460578305 26.1199105366991  24.8908425377155 26.4135395388925  Z M 11.0961517039332 2.11867535921906  L 7.12669251751077 9.83524573072642  L 4.04298043507543 9.83524573072642  L 8.70135402074353 0.955904527894451  C 8.92005701104526 0.580059404122439  9.19343573769756 0.304048131933361  9.52149020070043 0.127870711327219  C 9.8495446637033 -0.0483067092789227  10.1994694459411 -0.042434132610827  10.5712645474138 0.145488441331506  C 10.9430596488865 0.33341101527384  11.1562950565733 0.638785182859723  11.2109707704741 1.06161094408916  C 11.265646484375 1.48443670531859  11.2273734621947 1.83679151036189  11.0961517039332 2.11867535921906  Z " fill-rule="nonzero" fill="#f65e5c" stroke="none" transform="matrix(1 0 0 1 172 19 )" />
  </g>
</svg>